<svg width="1584" height="396" viewBox="0 0 1584 396" fill="none" xmlns="http://www.w3.org/2000/svg">
<g clip-path="url(#clip0_1_4)">
<rect width="1584" height="396" fill="white"/>
<path d="M1583 395H3V199V3L1583 4V395Z" stroke="black"/>
<path d="M344.721 5L304.169 144.537M304.169 144.537H3M304.169 144.537L417.715 296.622M3 275.039L325.256 335.27M325.256 335.27L417.715 296.622M325.256 335.27L304.169 395M417.715 296.622L541.535 395M417.715 296.622L694.552 5M782.145 5L809.18 251.448M809.18 251.448L728.616 395M809.18 251.448L1066.55 198.745M809.18 251.448L1168.2 395L1216.87 244.923M1066.55 198.745L1016.27 5M1066.55 198.745L1216.87 244.923M1216.87 244.923L1305 155.077M1216.87 244.923L1310.95 308.166M1305 155.077L1209.3 5M1305 155.077L1422.33 125.965M1422.33 125.965L1498.03 5M1422.33 125.965L1463.42 288.591M1463.42 288.591L1310.95 308.166M1463.42 288.591L1584 395M1310.95 308.166L1357.45 395" stroke="black"/>
</g>
<defs>
<clipPath id="clip0_1_4">
<rect width="1584" height="396" fill="white"/>
</clipPath>
</defs>
</svg>
